<svg width="40" height="40" viewBox="0 0 40 40" fill="none" xmlns="http://www.w3.org/2000/svg">
<path d="M5.56272 33.8571C7.26882 35.6286 9.30466 37.0714 11.5699 38.1143L9.50538 34.5571L5.56272 33.8429V33.8571Z" fill="#00D487"/>
<path d="M37.2473 9.82857L36.7885 14.2429L39.8566 17.2C39.4839 14.5286 38.5806 12.0429 37.2617 9.82857H37.2473Z" fill="#00D487"/>
<path d="M29.4767 37.6143C31.3118 36.6286 32.9749 35.3571 34.4229 33.8714L31.6989 34.5429L29.491 37.6143H29.4767Z" fill="#00D487"/>
<path d="M34.9821 16.4857L28.3441 19.4429L26.3799 25.4571L26.0645 26.4286L31.2832 31.7143L37.2043 30.2571C38.7957 27.6143 39.7849 24.5857 40 21.3571L34.9821 16.5V16.4857Z" fill="#00D487"/>
<path d="M16.2724 28.2429H16.2581L12.1577 33.4143L15.6989 39.5286C17.0896 39.8286 18.5233 40 20 40C21.6057 40 23.1541 39.7857 24.6452 39.4429L28.9749 33.4286L23.8423 28.2286H16.2724V28.2429Z" fill="#00D487"/>
<path d="M2.88172 9.6C1.27599 12.2286 0.243728 15.2429 0 18.4857L3.22581 14.3429L2.88172 9.6Z" fill="#00D487"/>
<path d="M21.4337 12.4571L22.4373 13.1857L27.3548 16.7429L33.9498 13.8143L34.724 6.44286C33.1613 4.75714 31.3118 3.32857 29.2473 2.25714L21.4337 5.72857V12.4571Z" fill="#00D487"/>
<path d="M12.6452 16.7571L18.5663 12.4714V5.72857L10.7527 2.27143C8.78853 3.28571 7.02509 4.61429 5.51971 6.2L6.07885 13.8429L12.6452 16.7571Z" fill="#00D487"/>
<path d="M25.5197 0.785714C23.7563 0.285714 21.9068 0 20 0C18.0932 0 16.2294 0.285714 14.466 0.785714L20 3.24286L25.5197 0.785714Z" fill="#00D487"/>
<path d="M9.83512 31.7286L13.9642 26.5429V26.5286L11.6559 19.4571L5.14695 16.5571L0.157706 22.9286C0.55914 25.6714 1.51971 28.2286 2.92473 30.4857L9.82079 31.7286H9.83512Z" fill="#00D487"/>
<path d="M16.6021 25.3857H23.3978L25.5054 18.9429L20 14.9571L14.509 18.9429L16.6021 25.3857Z" fill="#00D487"/>
</svg>
