<svg width="40" height="40" viewBox="0 0 40 40" fill="none" xmlns="http://www.w3.org/2000/svg">
<path d="M24.6875 21.1719V40H34.0625C36.0011 40 37.6562 38.423 37.6562 36.4844V21.1719H24.6875Z" fill="#00D487"/>
<path d="M2.34375 21.1719V36.4844C2.34375 38.423 3.92078 40 5.85938 40H15.3125V21.1719H2.34375Z" fill="#00D487"/>
<path d="M36.4844 9.375H31.6888C32.4324 8.39266 32.8906 7.18344 32.8906 5.85938C32.8906 2.62867 30.262 0 27.0312 0C22.942 0 21.758 2.9457 20 7.40648C18.242 2.9457 17.058 0 12.9688 0C9.73805 0 7.10938 2.62867 7.10938 5.85938C7.10938 7.18344 7.56758 8.39266 8.31117 9.375H3.51562C1.57703 9.375 0 10.952 0 12.8906V15.3125C0 17.2511 1.57703 18.8281 3.51562 18.8281H15.3125V9.375H12.9688C11.0302 9.375 9.45312 7.79797 9.45312 5.85938C9.45312 3.92078 11.0302 2.34375 12.9688 2.34375C15.3709 2.34375 16.0541 3.78453 17.8497 8.34047C17.9748 8.65859 18.1309 9.03602 18.2659 9.375H17.6562C17.6562 26.8502 17.6562 22.5171 17.6562 40H22.3438C22.3438 12.5691 22.3438 16.9937 22.3438 9.375H21.7342C21.8691 9.03594 22.0252 8.65859 22.1504 8.34047C23.9459 3.78453 24.6291 2.34375 27.0312 2.34375C28.9698 2.34375 30.5469 3.92078 30.5469 5.85938C30.5469 7.79797 28.9698 9.375 27.0312 9.375H24.6875V18.8281H36.4844C38.423 18.8281 40 17.2511 40 15.3125V12.8906C40 10.952 38.423 9.375 36.4844 9.375Z" fill="#00D487"/>
</svg>
