<svg width="40" height="40" viewBox="0 0 40 40" fill="none" xmlns="http://www.w3.org/2000/svg">
<path d="M6.78766 5.13055L11.7573 10.1002C13.7112 8.47055 16.153 7.41133 18.8281 7.16875V0C14.2188 0.270078 10.0336 2.24305 6.78766 5.13055Z" fill="#00D487"/>
<path d="M20 9.45312C14.1841 9.45312 9.45312 14.1841 9.45312 20C9.45312 25.8159 14.1841 30.5469 20 30.5469C25.8159 30.5469 30.5469 25.8159 30.5469 20C30.5469 14.1841 25.8159 9.45312 20 9.45312ZM23.5156 26.0036V28.2031H16.4844V26.0036C13.9266 25.9258 11.9434 23.8292 11.9434 21.165C11.9434 17.7573 15.2723 15.6492 19.3969 12.2146L20.1465 11.5898L20.8961 12.2146C24.663 15.3514 28.3496 17.6645 28.3496 21.165C28.3496 23.9299 26.2141 26.0402 23.5156 26.0036Z" fill="#00D487"/>
<path d="M20.1465 14.635C17.5261 16.7891 14.2871 19.0588 14.2871 21.165C14.2871 22.9081 15.8155 24.0422 17.2912 23.5614L18.8281 23.0567V25.8594H21.1719V22.7603C22.6894 23.3863 22.928 23.6621 23.6621 23.6621C25.1841 23.6621 26.0059 22.3758 26.0059 21.165C26.0059 19.0077 22.9602 16.948 20.1465 14.635Z" fill="#00D487"/>
<path d="M5.13055 6.78766C2.24305 10.0336 0.270078 14.2188 0 18.8281H7.16875C7.41133 16.1529 8.47055 13.7112 10.1002 11.7573L5.13055 6.78766Z" fill="#00D487"/>
<path d="M21.1719 0V7.16875C23.847 7.41133 26.2888 8.47047 28.2427 10.1002L33.2123 5.13055C29.9664 2.24305 25.7812 0.270078 21.1719 0Z" fill="#00D487"/>
<path d="M7.16875 21.1719H0C0.270078 25.7812 2.24305 29.9664 5.13055 33.2123L10.1002 28.2427C8.47047 26.2888 7.41133 23.8471 7.16875 21.1719Z" fill="#00D487"/>
<path d="M32.8312 21.1719C32.5887 23.8471 31.5295 26.2888 29.8998 28.2427L34.8695 33.2123C37.757 29.9664 39.7299 25.7812 40 21.1719H32.8312Z" fill="#00D487"/>
<path d="M28.2427 29.8998C26.2888 31.5295 23.847 32.5887 21.1719 32.8312V40C25.7812 39.7299 29.9664 37.757 33.2123 34.8695L28.2427 29.8998Z" fill="#00D487"/>
<path d="M11.7573 29.8998L6.78766 34.8695C10.0336 37.757 14.2188 39.7299 18.8281 40V32.8312C16.1529 32.5887 13.7112 31.5295 11.7573 29.8998Z" fill="#00D487"/>
<path d="M34.8695 6.78766L29.8998 11.7573C31.5295 13.7112 32.5887 16.153 32.8312 18.8281H40C39.7299 14.2188 37.757 10.0336 34.8695 6.78766Z" fill="#00D487"/>
</svg>
