<svg width="44" height="40" viewBox="0 0 44 40" fill="none" xmlns="http://www.w3.org/2000/svg">
<path d="M8.8 0H35.2C40.04 0 44 4 44 8.88889C44 12.6667 41.8 15.7778 38.5 17.1111V8.88889C38.5 8 38.06 7.11111 37.62 6.44444C37.18 5.77778 36.08 5.55556 35.2 5.55556H8.8C7.92 5.55556 7.04 6 6.38 6.44444C5.72 6.88889 5.5 8 5.5 8.88889V17.1111C2.2 15.7778 0 12.6667 0 8.88889C0 4 3.96 0 8.8 0Z" fill="#00D487"/>
<path fill-rule="evenodd" clip-rule="evenodd" d="M35.2 8.88889V35.5556C35.2 38 33.22 40 30.8 40H13.2C10.78 40 8.8 38 8.8 35.5556V8.88889H35.2ZM18.7 25.5556L20.24 27.1111V17.7778C20.24 16.8889 20.9 16 22 16C23.1 16 23.76 16.6667 23.76 17.7778V27.1111L25.3 25.5556C25.96 24.8889 27.06 24.8889 27.72 25.5556C28.38 26.2222 28.38 27.3333 27.72 28L24.86 30.8889C23.32 32.4444 20.9 32.4444 19.36 30.8889L16.5 28C15.84 27.3333 15.84 26.2222 16.5 25.5556C17.16 24.8889 18.04 24.8889 18.7 25.5556Z" fill="#00D487"/>
</svg>
